# xmcd CD database file
#
# Track frame offsets:
#	150
#	11656
#	20273
#	31297
#	44853
#	56386
#	67170
#	77245
#	87190
#	98275
#	107965
#	117629
#	127338
#	139451
#	150348
#	160917
#	173401
#	183020
#	197146
#	205463
#	216300
#	225246
#	249470
#	255505
#
# Disc length: 3477 seconds
#
# Revision: 0
# Processed by: cddbd v1.5.2PL0 Copyright (c) Steve Scherf et al.
# Submitted via: CDex 1.51
#
DISCID=4c0d9318
DTITLE=Johnny Jones - The Session Years 1956-1966
DYEAR=2010
DGENRE=Blues
TTITLE0=Every Night In The Week
TTITLE1=Now That We're Together
TTITLE2=Best Of Luck Baby
TTITLE3=Sittin' Here Drinking
TTITLE4=Somebody Somewhere
TTITLE5=Slave To Love
TTITLE6=I'm Just What You're Looking
TTITLE7=Fiesta
TTITLE8=Nightmare
TTITLE9=Blue Night
TTITLE10=Pipe Dreams
TTITLE11=Oh Baby
TTITLE12=I'm Going Home
TTITLE13=Crazy About You Baby
TTITLE14=Let Me Down Easy
TTITLE15=Sugar Daddy
TTITLE16=Mojo Blues
TTITLE17=Slow Down Baby
TTITLE18=Strung Out
TTITLE19=Finger Lickin' 
TTITLE20=24 Hours A Day
TTITLE21=Mercy On My Soul
TTITLE22=Lucky Lou
TTITLE23=Pickin' Berries
EXTD=YEAR: 2010
EXTT0=
EXTT1=
EXTT2=
EXTT3=
EXTT4=
EXTT5=
EXTT6=
EXTT7=
EXTT8=
EXTT9=
EXTT10=
EXTT11=
EXTT12=
EXTT13=
EXTT14=
EXTT15=
EXTT16=
EXTT17=
EXTT18=
EXTT19=
EXTT20=
EXTT21=
EXTT22=
EXTT23=
PLAYORDER=
